<?xml version="1.0" standalone="no"?>
<!DOCTYPE svg PUBLIC "-//W3C//DTD SVG 20010904//EN"
 "http://www.w3.org/TR/2001/REC-SVG-20010904/DTD/svg10.dtd">
<svg version="1.0" xmlns="http://www.w3.org/2000/svg"
 width="1024.000000pt" height="1024.000000pt" viewBox="0 0 1024.000000 1024.000000"
 preserveAspectRatio="xMidYMid meet">

<g transform="translate(0.000000,1024.000000) scale(0.100000,-0.100000)"
fill="#ffff" stroke="none">
<path d="M2930 8443 c-36 -14 -60 -47 -60 -84 0 -35 23 -66 283 -381 155 -189
397 -482 537 -653 593 -724 680 -828 857 -1037 13 -15 -3 -39 -149 -227 -90
-116 -166 -210 -170 -211 -4 0 -8 124 -10 276 l-3 276 -24 19 c-21 17 -41 19
-192 19 -156 0 -171 -2 -189 -20 -19 -19 -20 -34 -20 -557 l-1 -538 -72 -87
-72 -87 -5 420 -5 421 -24 19 c-21 17 -41 19 -190 19 -162 0 -168 -1 -189 -23
l-22 -23 0 -685 0 -686 -30 -44 c-16 -24 -86 -116 -154 -204 -137 -174 -153
-208 -131 -262 26 -63 28 -63 572 -63 532 0 555 2 638 58 25 17 152 167 328
387 159 198 377 470 484 604 l197 245 43 -49 43 -49 2 785 3 784 34 63 c40 73
98 125 171 153 47 18 80 19 464 19 l414 0 213 263 c118 144 333 408 479 587
146 179 287 351 313 383 54 67 60 101 23 144 l-24 28 -549 0 -549 0 -60 -30
c-53 -28 -76 -52 -244 -256 -614 -751 -774 -944 -780 -944 -9 0 -48 47 -525
630 -202 248 -390 473 -418 502 -28 29 -73 62 -101 75 l-51 23 -535 2 c-294 1
-542 -1 -550 -4z"/>
<path d="M5585 6746 c-37 -17 -70 -52 -84 -89 -8 -19 -11 -290 -11 -843 0
-791 1 -816 20 -853 11 -22 36 -50 57 -62 l38 -24 671 0 670 0 41 27 c78 51
74 -5 71 927 -3 820 -3 830 -24 857 -11 15 -33 37 -48 48 -27 21 -38 21 -699
23 -546 2 -678 0 -702 -11z m1257 -531 l3 -145 -570 0 -570 0 0 145 0 145 567
0 567 0 3 -145z m-642 -480 l0 -145 -247 0 -248 0 0 145 0 145 248 0 247 0 0
-145z m642 0 l3 -145 -247 0 -248 0 0 145 0 145 244 0 245 0 3 -145z m-642
-450 l0 -145 -247 0 -248 0 2 142 c1 79 3 144 3 146 0 1 110 2 245 2 l245 0 0
-145z m642 0 l3 -145 -247 0 -248 0 0 145 0 145 244 0 245 0 3 -145z"/>
<path d="M5772 4572 c8 -9 88 -107 177 -217 185 -227 205 -247 281 -284 l55
-26 472 -3 c520 -3 516 -4 548 58 31 60 22 76 -171 306 l-155 183 -611 1
c-578 0 -610 -1 -596 -18z"/>
<path d="M3310 2585 l0 -655 120 0 120 0 0 655 0 655 -120 0 -120 0 0 -655z"/>
<path d="M1140 2565 l0 -635 308 0 c333 0 386 6 484 56 72 37 142 105 168 167
51 116 34 256 -40 340 -42 47 -127 97 -167 97 -32 0 -29 16 6 23 48 10 114 68
144 126 51 102 33 248 -43 333 -21 24 -61 56 -89 71 -88 49 -156 57 -478 57
l-293 0 0 -635z m620 407 c55 -27 83 -77 78 -140 -5 -61 -31 -95 -95 -123 -32
-15 -77 -21 -197 -26 l-156 -6 0 156 0 157 168 0 c139 0 173 -3 202 -18z m17
-493 c75 -24 122 -118 103 -204 -12 -55 -39 -86 -96 -115 -46 -23 -61 -25
-221 -28 l-173 -4 0 185 0 185 178 -5 c97 -2 191 -8 209 -14z"/>
<path d="M7832 3193 c12 -28 363 -548 389 -577 l32 -37 -31 -42 c-17 -23 -117
-169 -222 -324 l-191 -283 140 0 140 0 129 188 c71 103 140 206 153 229 13 24
26 43 29 42 3 0 73 -104 155 -230 l150 -229 147 0 148 0 -191 288 c-105 158
-204 304 -220 325 l-30 37 44 58 c40 52 367 536 375 554 2 5 -61 8 -140 8
l-143 0 -135 -206 c-74 -113 -140 -212 -146 -221 -10 -15 -13 -14 -24 8 -7 13
-71 113 -142 222 l-131 197 -144 0 c-80 0 -143 -3 -141 -7z"/>
<path d="M2560 2864 c-126 -34 -220 -122 -254 -240 -6 -21 -2 -23 81 -34 48
-6 95 -13 103 -16 9 -2 23 11 37 35 33 57 115 96 184 88 97 -12 145 -61 151
-152 l3 -50 -147 -12 c-244 -19 -323 -44 -392 -124 -43 -51 -56 -92 -56 -179
0 -119 64 -209 175 -247 34 -13 80 -18 145 -18 82 0 103 4 150 27 30 14 70 40
88 57 18 17 36 31 39 31 3 0 3 -23 1 -50 l-3 -50 118 0 118 0 -3 358 -3 357
-27 51 c-46 88 -132 151 -236 173 -72 15 -206 13 -272 -5z m310 -559 c0 -74
-55 -162 -123 -197 -54 -27 -141 -29 -184 -3 -80 47 -75 157 9 201 28 15 139
29 256 33 42 1 42 1 42 -34z"/>
<path d="M4020 2864 c-107 -29 -194 -98 -236 -188 -25 -53 -30 -76 -16 -76 4
0 48 -7 97 -14 89 -14 90 -14 105 7 52 77 127 114 209 103 90 -12 141 -70 141
-159 l0 -45 -107 -6 c-297 -19 -395 -53 -459 -162 -31 -52 -42 -147 -25 -209
21 -79 63 -130 137 -166 64 -32 75 -34 169 -34 87 0 107 4 155 26 31 14 73 41
93 59 l37 32 0 -51 0 -51 120 0 121 0 -3 353 c-3 343 -4 353 -26 402 -42 91
-118 152 -227 181 -65 18 -216 17 -285 -2z m310 -550 c0 -90 -77 -193 -163
-219 -106 -31 -207 18 -207 101 0 50 23 89 65 109 34 16 146 30 258 34 44 1
47 0 47 -25z"/>
<path d="M5167 2861 c-67 -22 -121 -60 -148 -105 l-19 -31 0 68 0 67 -115 0
-115 0 0 -465 0 -465 120 0 120 0 0 288 0 288 26 52 c78 158 316 142 354 -24
5 -21 10 -166 10 -321 l0 -283 121 0 121 0 -4 348 c-4 330 -5 350 -26 403 -30
75 -81 132 -148 165 -75 37 -211 44 -297 15z"/>
<path d="M6141 2865 c-254 -71 -394 -315 -337 -586 18 -85 52 -152 109 -214
164 -182 474 -207 669 -54 55 44 142 188 125 206 -6 5 -194 63 -208 63 -4 0
-10 -11 -13 -24 -18 -73 -108 -129 -206 -129 -158 1 -243 95 -244 269 0 70 4
89 30 140 35 72 86 110 165 124 107 20 198 -19 240 -103 12 -23 22 -43 23 -44
2 -2 51 13 110 33 122 41 120 37 61 134 -40 67 -130 143 -205 171 -73 29 -241
36 -319 14z"/>
<path d="M7151 2865 c-221 -62 -358 -270 -336 -515 23 -270 207 -440 475 -440
177 0 318 77 386 211 l24 48 -93 29 -92 28 -27 -37 c-16 -22 -49 -48 -83 -64
-50 -25 -64 -27 -131 -23 -62 4 -82 10 -117 34 -48 34 -74 74 -92 142 l-12 49
201 6 c110 4 261 7 334 7 l132 0 0 94 c0 204 -92 353 -257 417 -75 29 -233 36
-312 14z m235 -184 c22 -10 50 -31 62 -46 19 -24 52 -111 52 -137 0 -4 -99 -8
-221 -8 l-221 0 7 33 c28 137 190 217 321 158z"/>
</g>
</svg>
